<svg width="430" height="430" viewBox="0 0 430 430" fill="none" xmlns="http://www.w3.org/2000/svg">
<circle cx="215" cy="215" r="215" fill="#12181C"/>
<path d="M305.931 285.12V249.865C305.931 244.771 307.101 240.144 309.441 235.999C311.781 231.861 315.119 228.553 319.456 226.083C323.792 223.613 328.948 222.377 334.91 222.377C340.872 222.377 346.094 223.613 350.357 226.083C354.621 228.553 357.886 231.861 360.147 235.999C362.408 240.144 363.545 244.764 363.545 249.865V285.12C353.854 285.12 346.002 276.83 346.002 266.6V250.347C346.002 248.197 345.506 246.223 344.527 244.429C343.543 242.636 342.207 241.198 340.509 240.123C338.81 239.049 336.906 238.511 334.791 238.511C332.676 238.511 330.66 239.049 328.961 240.123C327.262 241.198 325.92 242.636 324.942 244.429C323.964 246.223 323.468 248.191 323.468 250.347V266.6C323.468 276.83 315.615 285.12 305.925 285.12H305.931Z" fill="#F0EEE9" fill-opacity="0.93"/>
<path d="M276.497 285.358C269.907 285.358 264.109 284.06 259.112 281.457C254.115 278.861 250.228 275.26 247.465 270.661C244.702 266.062 243.321 260.724 243.321 254.646C243.321 247.925 244.643 242.175 247.3 237.374C249.951 232.573 253.494 228.881 257.922 226.278C262.351 223.682 267.256 222.377 272.636 222.377C278.777 222.377 283.907 223.738 288.031 226.453C292.163 229.174 295.283 232.873 297.411 237.548C299.533 242.224 300.59 247.562 300.59 253.564C300.59 254.604 300.531 255.825 300.419 257.228C300.306 258.63 300.174 259.726 300.022 260.528H261.842C262.298 262.608 263.164 264.366 264.453 265.804C265.742 267.242 267.368 268.302 269.338 268.986C271.308 269.67 273.502 270.005 275.928 270.005H300.584V285.365H276.497V285.358ZM261.38 248.888H283.536C283.384 247.611 283.16 246.369 282.856 245.169C282.552 243.969 282.076 242.908 281.434 241.994C280.787 241.073 280.053 240.277 279.22 239.593C278.387 238.916 277.422 238.379 276.325 237.974C275.228 237.576 273.992 237.374 272.63 237.374C270.885 237.374 269.338 237.695 267.97 238.33C266.608 238.972 265.471 239.83 264.559 240.912C263.647 241.994 262.946 243.236 262.457 244.632C261.968 246.027 261.604 247.451 261.38 248.888Z" fill="#F0EEE9" fill-opacity="0.93"/>
<path d="M217.079 269.581H166.955C164.014 269.581 161.482 268.925 159.373 267.606C157.258 266.294 155.619 264.5 154.449 262.232C153.279 259.964 152.697 257.389 152.697 254.521C152.697 251.653 153.279 249.085 154.449 246.817C155.619 244.549 157.258 242.756 159.373 241.437C161.482 240.125 164.014 239.462 166.955 239.462H176.804V223.809H166.274C160.233 223.809 154.878 225.163 150.199 227.871C145.519 230.578 141.824 234.228 139.107 238.806C136.39 243.384 135.028 248.624 135.028 254.521C135.028 260.418 136.39 265.652 139.107 270.237C141.824 274.821 145.519 278.443 150.199 281.116C154.878 283.789 160.233 285.115 166.274 285.115H225.97C221.204 281.542 217.872 275.98 217.072 269.581H217.079Z" fill="#F0EEE9" fill-opacity="0.93"/>
<path d="M112.673 285.121V242.455C112.673 232.162 120.579 223.816 130.329 223.816V266.482C130.329 276.775 122.423 285.121 112.673 285.121Z" fill="#F0EEE9" fill-opacity="0.93"/>
<path d="M89.9082 266.594V197.877C99.5985 197.877 107.451 206.168 107.451 216.398V285.114C97.7609 285.114 89.9082 276.824 89.9082 266.594Z" fill="#F0EEE9" fill-opacity="0.93"/>
<path d="M257.116 168.1C253.348 164.227 257.81 160.012 253.877 154.443C249.944 148.882 240.842 163.411 236.929 169.049C233.022 174.688 222.559 173.543 222.896 167.856C223.233 162.175 237.98 160.403 232.97 153.097C227.959 145.797 214.23 154.395 217.363 145.623C220.496 136.851 218.302 130.738 211.203 131.177C204.103 131.617 210.218 125.336 200.997 126.669C191.769 128.002 201.777 137.891 196.72 140.982C191.663 144.073 192.351 135.811 185.932 140.047C179.514 144.283 183.084 154.988 178.767 152.489C174.451 149.991 184.749 132.454 180.387 127.29C176.024 122.126 171.1 127.276 166.625 130.34C162.15 133.403 158.6 120.319 154.211 129.279C149.822 138.24 165.474 159.286 161.799 168.561C158.124 177.835 137.13 156.195 132.246 155.511C127.361 154.827 128.015 165.127 129.04 166.76C130.064 168.393 128.2 171.694 128.022 174.262C127.843 176.83 132.193 176.397 132.332 180.284C132.464 184.171 127.103 181.513 121.736 185.909C116.368 190.312 119.449 191.673 120.096 196.377C120.744 201.08 127.83 200.089 131.135 203.02C134.44 205.951 134.909 209.691 140.231 211.75C145.552 213.809 148.063 202.546 150.82 196.991C153.576 191.436 163.267 182.043 173.287 192.999C179.091 199.349 180.77 203.334 180.77 211.457V264.688H198.313V250.229C198.313 247.996 198.822 246.007 199.84 244.256C200.858 242.504 202.233 241.108 203.971 240.075C205.71 239.043 207.594 238.519 209.63 238.519C211.665 238.519 213.536 239.057 215.235 240.131C216.927 241.206 218.289 242.644 219.307 244.437C220.325 246.23 220.834 248.282 220.834 250.592V266.607C220.834 276.838 228.686 285.128 238.377 285.128V249.873C238.377 244.618 237.458 239.915 235.607 235.77C233.763 231.632 231.006 228.359 227.344 225.972C223.682 223.578 219.214 222.385 213.933 222.385C211.216 222.385 208.499 222.825 205.782 223.697C203.072 224.576 200.58 225.965 198.313 227.877V198.498C198.313 198.498 198.313 198.086 198.313 197.884C198.313 187.012 207.21 185.769 211.143 190.682C217.145 198.177 222.149 213.292 234.021 215.623C245.892 217.954 247.935 213.083 248.748 209.615C249.561 206.146 244.874 206.726 242.283 204.109C239.692 201.492 246.586 197.472 244.57 193.418C242.548 189.363 235.21 194.506 232.071 190.473C228.931 186.432 237.702 184.716 244.332 185.581C250.962 186.446 259.674 185.581 262.669 180.131C265.663 174.681 260.877 171.98 257.11 168.107L257.116 168.1Z" fill="#F0EEE9" fill-opacity="0.93"/>
</svg>
